<svg id="visual" viewBox="0 0 1000 600" width="1000" height="600" xmlns="http://www.w3.org/2000/svg" xmlns:xlink="http://www.w3.org/1999/xlink" 
version="1.1"><rect x="0" y="0" width="1000" height="600" fill="#f5f5f5"></rect>
<g transform="translate(503.09860705431925 299.73764631046356)">
<path d="M133.8 -177.3C178.7 -151.6 223.9 -119.5 244.2 -75.1C264.4 -30.7 259.6 26.1 244.2 81.1C228.7 136.1 202.5 189.4 160 208.8C117.6 228.1 58.8 213.6 2.7 209.8C-53.3 206 -106.6 213 -149.5 193.8C-192.5 174.6 -225.1 129.2 -245.2 77.3C-265.3 25.4 -273 -32.9 -248.4 -72.1C-223.8 -111.3 -167 -131.5 -120.2 -156.7C-73.5 -181.8 -36.7 -211.9 3.9 -217.2C44.5 -222.5 89 -203.1 133.8 -177.3" fill="#42e3e8"></path></g></svg>

