<svg id="visual" viewBox="0 0 1000 600" width="1000" height="600" xmlns="http://www.w3.org/2000/svg" xmlns:xlink="http://www.w3.org/1999/xlink" version="1.1"><rect x="0" y="0" width="1000" height="600" fill="#f5f5f5"></rect><g transform="translate(529.5186756481063 296.16356244480335)"><path d="M136.4 -203.6C167.8 -164.9 178 -113.1 181.5 -67.3C185 -21.5 181.7 18.2 172.4 58.9C163.2 99.6 148 141.2 118.3 180.2C88.6 219.2 44.3 255.6 -7.2 265.6C-58.8 275.6 -117.6 259.1 -157 223.3C-196.5 187.5 -216.7 132.2 -229.7 77.9C-242.8 23.7 -248.9 -29.6 -229.6 -70.2C-210.3 -110.8 -165.7 -138.7 -123.2 -173.7C-80.7 -208.8 -40.4 -250.9 6.1 -259.2C52.5 -267.6 105 -242.2 136.4 -203.6" fill="#42e3e8"></path></g></svg>