<svg id="visual" viewBox="0 0 960 100" width="960" height="100" xmlns="http://www.w3.org/2000/svg" xmlns:xlink="http://www.w3.org/1999/xlink" version="1.1"><rect x="0" y="0" width="960" height="100" fill="#f5f5f5"></rect><path d="M0 56L9.3 61.5C18.7 67 37.3 78 56.2 76.3C75 74.7 94 60.3 112.8 56.7C131.7 53 150.3 60 169.2 66.8C188 73.7 207 80.3 225.8 79C244.7 77.7 263.3 68.3 282.2 68.8C301 69.3 320 79.7 338.8 82.5C357.7 85.3 376.3 80.7 395.2 78.2C414 75.7 433 75.3 451.8 74.3C470.7 73.3 489.3 71.7 508.2 67.7C527 63.7 546 57.3 564.8 56.3C583.7 55.3 602.3 59.7 621.2 66.3C640 73 659 82 677.8 82.7C696.7 83.3 715.3 75.7 734.2 68C753 60.3 772 52.7 790.8 56.7C809.7 60.7 828.3 76.3 847.2 78.5C866 80.7 885 69.3 903.8 68.5C922.7 67.7 941.3 77.3 950.7 82.2L960 87L960 0L950.7 0C941.3 0 922.7 0 903.8 0C885 0 866 0 847.2 0C828.3 0 809.7 0 790.8 0C772 0 753 0 734.2 0C715.3 0 696.7 0 677.8 0C659 0 640 0 621.2 0C602.3 0 583.7 0 564.8 0C546 0 527 0 508.2 0C489.3 0 470.7 0 451.8 0C433 0 414 0 395.2 0C376.3 0 357.7 0 338.8 0C320 0 301 0 282.2 0C263.3 0 244.7 0 225.8 0C207 0 188 0 169.2 0C150.3 0 131.7 0 112.8 0C94 0 75 0 56.2 0C37.3 0 18.7 0 9.3 0L0 0Z" fill="#f5f5f5"></path><path d="M0 65L9.3 61.7C18.7 58.3 37.3 51.7 56.2 53.3C75 55 94 65 112.8 70.5C131.7 76 150.3 77 169.2 71.7C188 66.3 207 54.7 225.8 50C244.7 45.3 263.3 47.7 282.2 53C301 58.3 320 66.7 338.8 69.8C357.7 73 376.3 71 395.2 65.5C414 60 433 51 451.8 47.3C470.7 43.7 489.3 45.3 508.2 51.2C527 57 546 67 564.8 68.3C583.7 69.7 602.3 62.3 621.2 62C640 61.7 659 68.3 677.8 65.8C696.7 63.3 715.3 51.7 734.2 50.5C753 49.3 772 58.7 790.8 61.5C809.7 64.3 828.3 60.7 847.2 56.5C866 52.3 885 47.7 903.8 52.2C922.7 56.7 941.3 70.3 950.7 77.2L960 84L960 0L950.7 0C941.3 0 922.7 0 903.8 0C885 0 866 0 847.2 0C828.3 0 809.7 0 790.8 0C772 0 753 0 734.2 0C715.3 0 696.7 0 677.8 0C659 0 640 0 621.2 0C602.3 0 583.7 0 564.8 0C546 0 527 0 508.2 0C489.3 0 470.7 0 451.8 0C433 0 414 0 395.2 0C376.3 0 357.7 0 338.8 0C320 0 301 0 282.2 0C263.3 0 244.7 0 225.8 0C207 0 188 0 169.2 0C150.3 0 131.7 0 112.8 0C94 0 75 0 56.2 0C37.3 0 18.7 0 9.3 0L0 0Z" fill="#dbecf1"></path><path d="M0 35L9.3 36.8C18.7 38.7 37.3 42.3 56.2 43C75 43.7 94 41.3 112.8 45.2C131.7 49 150.3 59 169.2 59.3C188 59.7 207 50.3 225.8 50.5C244.7 50.7 263.3 60.3 282.2 63.7C301 67 320 64 338.8 58.5C357.7 53 376.3 45 395.2 40.8C414 36.7 433 36.3 451.8 42C470.7 47.7 489.3 59.3 508.2 61.3C527 63.3 546 55.7 564.8 54.5C583.7 53.3 602.3 58.7 621.2 59C640 59.3 659 54.7 677.8 51.3C696.7 48 715.3 46 734.2 46.3C753 46.7 772 49.3 790.8 49.8C809.7 50.3 828.3 48.7 847.2 48.5C866 48.3 885 49.7 903.8 53.3C922.7 57 941.3 63 950.7 66L960 69L960 0L950.7 0C941.3 0 922.7 0 903.8 0C885 0 866 0 847.2 0C828.3 0 809.7 0 790.8 0C772 0 753 0 734.2 0C715.3 0 696.7 0 677.8 0C659 0 640 0 621.2 0C602.3 0 583.7 0 564.8 0C546 0 527 0 508.2 0C489.3 0 470.7 0 451.8 0C433 0 414 0 395.2 0C376.3 0 357.7 0 338.8 0C320 0 301 0 282.2 0C263.3 0 244.7 0 225.8 0C207 0 188 0 169.2 0C150.3 0 131.7 0 112.8 0C94 0 75 0 56.2 0C37.3 0 18.7 0 9.3 0L0 0Z" fill="#c0e3ed"></path><path d="M0 47L9.3 48.3C18.7 49.7 37.3 52.3 56.2 53.3C75 54.3 94 53.7 112.8 53.7C131.7 53.7 150.3 54.3 169.2 53.8C188 53.3 207 51.7 225.8 48.5C244.7 45.3 263.3 40.7 282.2 41.7C301 42.7 320 49.3 338.8 48.3C357.7 47.3 376.3 38.7 395.2 38.3C414 38 433 46 451.8 45.7C470.7 45.3 489.3 36.7 508.2 31.5C527 26.3 546 24.7 564.8 24C583.7 23.3 602.3 23.7 621.2 26.7C640 29.7 659 35.3 677.8 37.7C696.7 40 715.3 39 734.2 36.3C753 33.7 772 29.3 790.8 30.5C809.7 31.7 828.3 38.3 847.2 38.5C866 38.7 885 32.3 903.8 30.5C922.7 28.7 941.3 31.3 950.7 32.7L960 34L960 0L950.7 0C941.3 0 922.7 0 903.8 0C885 0 866 0 847.2 0C828.3 0 809.7 0 790.8 0C772 0 753 0 734.2 0C715.3 0 696.7 0 677.8 0C659 0 640 0 621.2 0C602.3 0 583.7 0 564.8 0C546 0 527 0 508.2 0C489.3 0 470.7 0 451.8 0C433 0 414 0 395.2 0C376.3 0 357.7 0 338.8 0C320 0 301 0 282.2 0C263.3 0 244.7 0 225.8 0C207 0 188 0 169.2 0C150.3 0 131.7 0 112.8 0C94 0 75 0 56.2 0C37.3 0 18.7 0 9.3 0L0 0Z" fill="#a3dae9"></path><path d="M0 14L9.3 18.7C18.7 23.3 37.3 32.7 56.2 34C75 35.3 94 28.7 112.8 28.3C131.7 28 150.3 34 169.2 35.8C188 37.7 207 35.3 225.8 32.3C244.7 29.3 263.3 25.7 282.2 24.3C301 23 320 24 338.8 26.5C357.7 29 376.3 33 395.2 34.5C414 36 433 35 451.8 33.2C470.7 31.3 489.3 28.7 508.2 30.2C527 31.7 546 37.3 564.8 37.3C583.7 37.3 602.3 31.7 621.2 29.5C640 27.3 659 28.7 677.8 29.3C696.7 30 715.3 30 734.2 33.2C753 36.3 772 42.7 790.8 41C809.7 39.3 828.3 29.7 847.2 27.2C866 24.7 885 29.3 903.8 30C922.7 30.7 941.3 27.3 950.7 25.7L960 24L960 0L950.7 0C941.3 0 922.7 0 903.8 0C885 0 866 0 847.2 0C828.3 0 809.7 0 790.8 0C772 0 753 0 734.2 0C715.3 0 696.7 0 677.8 0C659 0 640 0 621.2 0C602.3 0 583.7 0 564.8 0C546 0 527 0 508.2 0C489.3 0 470.7 0 451.8 0C433 0 414 0 395.2 0C376.3 0 357.7 0 338.8 0C320 0 301 0 282.2 0C263.3 0 244.7 0 225.8 0C207 0 188 0 169.2 0C150.3 0 131.7 0 112.8 0C94 0 75 0 56.2 0C37.3 0 18.7 0 9.3 0L0 0Z" fill="#84d1e5"></path><path d="M0 30L9.3 28C18.7 26 37.3 22 56.2 21.8C75 21.7 94 25.3 112.8 27.7C131.7 30 150.3 31 169.2 30.7C188 30.3 207 28.7 225.8 28.2C244.7 27.7 263.3 28.3 282.2 27.5C301 26.7 320 24.3 338.8 20.8C357.7 17.3 376.3 12.7 395.2 13.8C414 15 433 22 451.8 23C470.7 24 489.3 19 508.2 18.5C527 18 546 22 564.8 21.5C583.7 21 602.3 16 621.2 13.3C640 10.7 659 10.3 677.8 11C696.7 11.7 715.3 13.3 734.2 13.3C753 13.3 772 11.7 790.8 14.3C809.7 17 828.3 24 847.2 26.7C866 29.3 885 27.7 903.8 24.7C922.7 21.7 941.3 17.3 950.7 15.2L960 13L960 0L950.7 0C941.3 0 922.7 0 903.8 0C885 0 866 0 847.2 0C828.3 0 809.7 0 790.8 0C772 0 753 0 734.2 0C715.3 0 696.7 0 677.8 0C659 0 640 0 621.2 0C602.3 0 583.7 0 564.8 0C546 0 527 0 508.2 0C489.3 0 470.7 0 451.8 0C433 0 414 0 395.2 0C376.3 0 357.7 0 338.8 0C320 0 301 0 282.2 0C263.3 0 244.7 0 225.8 0C207 0 188 0 169.2 0C150.3 0 131.7 0 112.8 0C94 0 75 0 56.2 0C37.3 0 18.7 0 9.3 0L0 0Z" fill="#5ec8e0"></path><path d="M0 23L9.3 19.5C18.7 16 37.3 9 56.2 5.2C75 1.3 94 0.7 112.8 0.5C131.7 0.3 150.3 0.7 169.2 0.8C188 1 207 1 225.8 4.2C244.7 7.3 263.3 13.7 282.2 14.2C301 14.7 320 9.3 338.8 8.3C357.7 7.3 376.3 10.7 395.2 13.5C414 16.3 433 18.7 451.8 17.2C470.7 15.7 489.3 10.3 508.2 9C527 7.7 546 10.3 564.8 12.5C583.7 14.7 602.3 16.3 621.2 16.8C640 17.3 659 16.7 677.8 15.2C696.7 13.7 715.3 11.3 734.2 12.5C753 13.7 772 18.3 790.8 20.8C809.7 23.3 828.3 23.7 847.2 22.2C866 20.7 885 17.3 903.8 16.5C922.7 15.7 941.3 17.3 950.7 18.2L960 19L960 0L950.7 0C941.3 0 922.7 0 903.8 0C885 0 866 0 847.2 0C828.3 0 809.7 0 790.8 0C772 0 753 0 734.2 0C715.3 0 696.7 0 677.8 0C659 0 640 0 621.2 0C602.3 0 583.7 0 564.8 0C546 0 527 0 508.2 0C489.3 0 470.7 0 451.8 0C433 0 414 0 395.2 0C376.3 0 357.7 0 338.8 0C320 0 301 0 282.2 0C263.3 0 244.7 0 225.8 0C207 0 188 0 169.2 0C150.3 0 131.7 0 112.8 0C94 0 75 0 56.2 0C37.3 0 18.7 0 9.3 0L0 0Z" fill="#1cbfdc"></path></svg>