<svg id="visual" viewBox="0 0 1000 600" width="1000" height="600" xmlns="http://www.w3.org/2000/svg" xmlns:xlink="http://www.w3.org/1999/xlink" version="1.1"><rect x="0" y="0" width="1000" height="600" fill="#f5f5f5"></rect><g transform="translate(500.950916762892 296.3695341569977)"><path d="M83.9 -146.2C111.2 -129.6 137.5 -112.1 170 -87.5C202.5 -63 241.2 -31.5 257.2 9.2C273.3 50 266.5 100 239.7 134.4C212.9 168.7 165.9 187.4 122.6 187.4C79.3 187.4 39.7 168.7 5.3 159.6C-29.2 150.5 -58.3 151 -97.7 148.8C-137.1 146.5 -186.8 141.5 -221.5 116.3C-256.3 91 -276.1 45.5 -264.3 6.8C-252.5 -31.8 -208.9 -63.7 -174.7 -89.8C-140.4 -115.9 -115.5 -136.3 -87.9 -152.8C-60.3 -169.2 -30.2 -181.6 -0.9 -180C28.3 -178.4 56.7 -162.8 83.9 -146.2" fill="#00b78f"></path></g></svg>