<svg id="visual" viewBox="0 0 1000 600" width="1000" height="600" xmlns="http://www.w3.org/2000/svg" xmlns:xlink="http://www.w3.org/1999/xlink" version="1.1"><rect x="0" y="0" width="1000" height="600" fill="#f5f5f5"></rect><g transform="translate(485.7844200050034 269.2841507445267)"><path d="M92.6 -142.3C129.8 -138.8 176.6 -133.9 209.6 -110C242.6 -86 261.8 -43 249.1 -7.3C236.4 28.3 191.8 56.7 157.6 78.5C123.3 100.3 99.4 115.5 74.9 151.3C50.3 187.2 25.2 243.6 -8.9 259C-43 274.5 -86 249 -129.2 223.9C-172.3 198.8 -215.6 174.1 -223.3 136.9C-231 99.7 -203 49.8 -189.7 7.7C-176.4 -34.5 -177.8 -69 -171.6 -108.7C-165.3 -148.4 -151.4 -193.3 -121.5 -201C-91.7 -208.8 -45.8 -179.4 -9.1 -163.7C27.7 -147.9 55.3 -145.8 92.6 -142.3" fill="#00b78f"></path></g></svg>