<svg id="visual" viewBox="0 0 1300 600" width="1300" height="600" xmlns="http://www.w3.org/2000/svg" xmlns:xlink="http://www.w3.org/1999/xlink" version="1.1"><rect x="0" y="0" width="1300" height="600" fill="#f5f5f5"></rect><g transform="translate(619.1560343041301 320.77073271615217)"><path d="M83.1 -152.4C116.1 -124.8 157.2 -119.6 180.7 -98C204.2 -76.3 210.1 -38.2 220.4 5.9C230.6 50 245.2 100 228.1 132.8C211 165.5 162.3 181.1 119 185.4C75.7 189.7 37.8 182.9 -4.1 189.9C-46 197 -92 218 -119.9 204.8C-147.7 191.5 -157.4 144 -164.6 104.2C-171.8 64.3 -176.4 32.2 -173.3 1.8C-170.3 -28.7 -159.6 -57.3 -150.8 -94.3C-142 -131.2 -135 -176.5 -110.2 -208.8C-85.3 -241.1 -42.7 -260.6 -8.8 -245.3C25 -230 50 -179.9 83.1 -152.4" fill="#eae54a"></path></g></svg>