<svg id="visual" viewBox="0 0 1300 600" width="1300" height="600" xmlns="http://www.w3.org/2000/svg" xmlns:xlink="http://www.w3.org/1999/xlink" version="1.1"><rect x="0" y="0" width="1300" height="600" fill="#f5f5f5"></rect><g transform="translate(668.4770938302069 275.03831466207834)"><path d="M101.3 -150.5C144.6 -150.5 202.2 -150.2 221 -125.1C239.9 -100 219.9 -50 203.9 -9.3C187.9 31.5 175.8 63 164.7 101.5C153.6 140.1 143.6 185.7 116.3 197.2C89 208.8 44.5 186.4 8 172.6C-28.5 158.7 -57 153.4 -98.9 150.2C-140.7 147.1 -195.9 146 -228.2 121.3C-260.4 96.7 -269.7 48.3 -264.1 3.3C-258.5 -41.8 -237.9 -83.7 -205.1 -107.3C-172.2 -131 -127.1 -136.5 -90.9 -140.6C-54.7 -144.7 -27.3 -147.3 0.8 -148.8C29 -150.2 58 -150.5 101.3 -150.5" fill="#eae54a"></path></g></svg>