<svg id="visual" viewBox="0 0 960 100" width="960" height="100" xmlns="http://www.w3.org/2000/svg" xmlns:xlink="http://www.w3.org/1999/xlink" version="1.1"><rect x="0" y="0" width="960" height="100" fill="#f5f5f5"></rect><path d="M0 10L11.5 16C23 22 46 34 68.8 32.7C91.7 31.3 114.3 16.7 137.2 9.7C160 2.7 183 3.3 205.8 5.8C228.7 8.3 251.3 12.7 274.2 16C297 19.3 320 21.7 342.8 19.5C365.7 17.3 388.3 10.7 411.2 14.3C434 18 457 32 480 37.8C503 43.7 526 41.3 548.8 41.8C571.7 42.3 594.3 45.7 617.2 41C640 36.3 663 23.7 685.8 22.3C708.7 21 731.3 31 754.2 35.7C777 40.3 800 39.7 822.8 35.3C845.7 31 868.3 23 891.2 20.2C914 17.3 937 19.7 948.5 20.8L960 22L960 101L948.5 101C937 101 914 101 891.2 101C868.3 101 845.7 101 822.8 101C800 101 777 101 754.2 101C731.3 101 708.7 101 685.8 101C663 101 640 101 617.2 101C594.3 101 571.7 101 548.8 101C526 101 503 101 480 101C457 101 434 101 411.2 101C388.3 101 365.7 101 342.8 101C320 101 297 101 274.2 101C251.3 101 228.7 101 205.8 101C183 101 160 101 137.2 101C114.3 101 91.7 101 68.8 101C46 101 23 101 11.5 101L0 101Z" fill="#f5f5f5"></path><path d="M0 16L11.5 21.3C23 26.7 46 37.3 68.8 40.2C91.7 43 114.3 38 137.2 36.5C160 35 183 37 205.8 34C228.7 31 251.3 23 274.2 19.7C297 16.3 320 17.7 342.8 21.8C365.7 26 388.3 33 411.2 37.3C434 41.7 457 43.3 480 40C503 36.7 526 28.3 548.8 23.2C571.7 18 594.3 16 617.2 21C640 26 663 38 685.8 40.5C708.7 43 731.3 36 754.2 31C777 26 800 23 822.8 24.2C845.7 25.3 868.3 30.7 891.2 35.7C914 40.7 937 45.3 948.5 47.7L960 50L960 101L948.5 101C937 101 914 101 891.2 101C868.3 101 845.7 101 822.8 101C800 101 777 101 754.2 101C731.3 101 708.7 101 685.8 101C663 101 640 101 617.2 101C594.3 101 571.7 101 548.8 101C526 101 503 101 480 101C457 101 434 101 411.2 101C388.3 101 365.7 101 342.8 101C320 101 297 101 274.2 101C251.3 101 228.7 101 205.8 101C183 101 160 101 137.2 101C114.3 101 91.7 101 68.8 101C46 101 23 101 11.5 101L0 101Z" fill="#dfedf2"></path><path d="M0 27L11.5 31.3C23 35.7 46 44.3 68.8 43.7C91.7 43 114.3 33 137.2 28.3C160 23.7 183 24.3 205.8 25.8C228.7 27.3 251.3 29.7 274.2 32.7C297 35.7 320 39.3 342.8 40.5C365.7 41.7 388.3 40.3 411.2 42.5C434 44.7 457 50.3 480 50C503 49.7 526 43.3 548.8 38.3C571.7 33.3 594.3 29.7 617.2 28.7C640 27.7 663 29.3 685.8 30.8C708.7 32.3 731.3 33.7 754.2 33.3C777 33 800 31 822.8 31.8C845.7 32.7 868.3 36.3 891.2 41.3C914 46.3 937 52.7 948.5 55.8L960 59L960 101L948.5 101C937 101 914 101 891.2 101C868.3 101 845.7 101 822.8 101C800 101 777 101 754.2 101C731.3 101 708.7 101 685.8 101C663 101 640 101 617.2 101C594.3 101 571.7 101 548.8 101C526 101 503 101 480 101C457 101 434 101 411.2 101C388.3 101 365.7 101 342.8 101C320 101 297 101 274.2 101C251.3 101 228.7 101 205.8 101C183 101 160 101 137.2 101C114.3 101 91.7 101 68.8 101C46 101 23 101 11.5 101L0 101Z" fill="#c8e6ee"></path><path d="M0 70L11.5 68.3C23 66.7 46 63.3 68.8 61.3C91.7 59.3 114.3 58.7 137.2 54.5C160 50.3 183 42.7 205.8 40.5C228.7 38.3 251.3 41.7 274.2 43.5C297 45.3 320 45.7 342.8 49C365.7 52.3 388.3 58.7 411.2 60.3C434 62 457 59 480 58.3C503 57.7 526 59.3 548.8 61.5C571.7 63.7 594.3 66.3 617.2 63.3C640 60.3 663 51.7 685.8 48.5C708.7 45.3 731.3 47.7 754.2 49.7C777 51.7 800 53.3 822.8 52C845.7 50.7 868.3 46.3 891.2 46C914 45.7 937 49.3 948.5 51.2L960 53L960 101L948.5 101C937 101 914 101 891.2 101C868.3 101 845.7 101 822.8 101C800 101 777 101 754.2 101C731.3 101 708.7 101 685.8 101C663 101 640 101 617.2 101C594.3 101 571.7 101 548.8 101C526 101 503 101 480 101C457 101 434 101 411.2 101C388.3 101 365.7 101 342.8 101C320 101 297 101 274.2 101C251.3 101 228.7 101 205.8 101C183 101 160 101 137.2 101C114.3 101 91.7 101 68.8 101C46 101 23 101 11.5 101L0 101Z" fill="#b0deeb"></path><path d="M0 71L11.5 71.5C23 72 46 73 68.8 74.2C91.7 75.3 114.3 76.7 137.2 77.5C160 78.3 183 78.7 205.8 76.2C228.7 73.7 251.3 68.3 274.2 66.7C297 65 320 67 342.8 64.8C365.7 62.7 388.3 56.3 411.2 53C434 49.7 457 49.3 480 50.7C503 52 526 55 548.8 54.7C571.7 54.3 594.3 50.7 617.2 52.5C640 54.3 663 61.7 685.8 64.3C708.7 67 731.3 65 754.2 62C777 59 800 55 822.8 52C845.7 49 868.3 47 891.2 51C914 55 937 65 948.5 70L960 75L960 101L948.5 101C937 101 914 101 891.2 101C868.3 101 845.7 101 822.8 101C800 101 777 101 754.2 101C731.3 101 708.7 101 685.8 101C663 101 640 101 617.2 101C594.3 101 571.7 101 548.8 101C526 101 503 101 480 101C457 101 434 101 411.2 101C388.3 101 365.7 101 342.8 101C320 101 297 101 274.2 101C251.3 101 228.7 101 205.8 101C183 101 160 101 137.2 101C114.3 101 91.7 101 68.8 101C46 101 23 101 11.5 101L0 101Z" fill="#96d6e7"></path><path d="M0 59L11.5 62.3C23 65.7 46 72.3 68.8 73.5C91.7 74.7 114.3 70.3 137.2 70.7C160 71 183 76 205.8 75.2C228.7 74.3 251.3 67.7 274.2 64.2C297 60.7 320 60.3 342.8 64.2C365.7 68 388.3 76 411.2 78.5C434 81 457 78 480 75.7C503 73.3 526 71.7 548.8 72.2C571.7 72.7 594.3 75.3 617.2 73.7C640 72 663 66 685.8 66.7C708.7 67.3 731.3 74.7 754.2 76.2C777 77.7 800 73.3 822.8 71.3C845.7 69.3 868.3 69.7 891.2 68.7C914 67.7 937 65.3 948.5 64.2L960 63L960 101L948.5 101C937 101 914 101 891.2 101C868.3 101 845.7 101 822.8 101C800 101 777 101 754.2 101C731.3 101 708.7 101 685.8 101C663 101 640 101 617.2 101C594.3 101 571.7 101 548.8 101C526 101 503 101 480 101C457 101 434 101 411.2 101C388.3 101 365.7 101 342.8 101C320 101 297 101 274.2 101C251.3 101 228.7 101 205.8 101C183 101 160 101 137.2 101C114.3 101 91.7 101 68.8 101C46 101 23 101 11.5 101L0 101Z" fill="#7acee4"></path><path d="M0 89L11.5 89.2C23 89.3 46 89.7 68.8 86C91.7 82.3 114.3 74.7 137.2 72C160 69.3 183 71.7 205.8 72.3C228.7 73 251.3 72 274.2 74.2C297 76.3 320 81.7 342.8 84.3C365.7 87 388.3 87 411.2 83.7C434 80.3 457 73.7 480 73.5C503 73.3 526 79.7 548.8 81C571.7 82.3 594.3 78.7 617.2 75.3C640 72 663 69 685.8 70.7C708.7 72.3 731.3 78.7 754.2 80.8C777 83 800 81 822.8 78.5C845.7 76 868.3 73 891.2 72.7C914 72.3 937 74.7 948.5 75.8L960 77L960 101L948.5 101C937 101 914 101 891.2 101C868.3 101 845.7 101 822.8 101C800 101 777 101 754.2 101C731.3 101 708.7 101 685.8 101C663 101 640 101 617.2 101C594.3 101 571.7 101 548.8 101C526 101 503 101 480 101C457 101 434 101 411.2 101C388.3 101 365.7 101 342.8 101C320 101 297 101 274.2 101C251.3 101 228.7 101 205.8 101C183 101 160 101 137.2 101C114.3 101 91.7 101 68.8 101C46 101 23 101 11.5 101L0 101Z" fill="#57c7e0"></path><path d="M0 95L11.5 92.5C23 90 46 85 68.8 83.8C91.7 82.7 114.3 85.3 137.2 87.8C160 90.3 183 92.7 205.8 93C228.7 93.3 251.3 91.7 274.2 89.8C297 88 320 86 342.8 84.7C365.7 83.3 388.3 82.7 411.2 83.7C434 84.7 457 87.3 480 87.7C503 88 526 86 548.8 86.8C571.7 87.7 594.3 91.3 617.2 92.8C640 94.3 663 93.7 685.8 92.7C708.7 91.7 731.3 90.3 754.2 88C777 85.7 800 82.3 822.8 82.3C845.7 82.3 868.3 85.7 891.2 88.8C914 92 937 95 948.5 96.5L960 98L960 101L948.5 101C937 101 914 101 891.2 101C868.3 101 845.7 101 822.8 101C800 101 777 101 754.2 101C731.3 101 708.7 101 685.8 101C663 101 640 101 617.2 101C594.3 101 571.7 101 548.8 101C526 101 503 101 480 101C457 101 434 101 411.2 101C388.3 101 365.7 101 342.8 101C320 101 297 101 274.2 101C251.3 101 228.7 101 205.8 101C183 101 160 101 137.2 101C114.3 101 91.7 101 68.8 101C46 101 23 101 11.5 101L0 101Z" fill="#1cbfdc"></path></svg>