<svg id="visual" viewBox="0 0 960 540" width="960" height="540" xmlns="http://www.w3.org/2000/svg" xmlns:xlink="http://www.w3.org/1999/xlink" version="1.1"><rect x="0" y="0" width="960" height="540" fill="#002233"></rect><path d="M0 413L10 420.8C20 428.7 40 444.3 60 453.8C80 463.3 100 466.7 120 463.3C140 460 160 450 180 442.8C200 435.7 220 431.3 240 439.8C260 448.3 280 469.7 300 471.8C320 474 340 457 360 457.2C380 457.3 400 474.7 420 468.8C440 463 460 434 480 426.8C500 419.7 520 434.3 540 440C560 445.7 580 442.3 600 439.7C620 437 640 435 660 427.7C680 420.3 700 407.7 720 405.7C740 403.7 760 412.3 780 426.7C800 441 820 461 840 471.5C860 482 880 483 900 478.2C920 473.3 940 462.7 950 457.3L960 452L960 541L950 541C940 541 920 541 900 541C880 541 860 541 840 541C820 541 800 541 780 541C760 541 740 541 720 541C700 541 680 541 660 541C640 541 620 541 600 541C580 541 560 541 540 541C520 541 500 541 480 541C460 541 440 541 420 541C400 541 380 541 360 541C340 541 320 541 300 541C280 541 260 541 240 541C220 541 200 541 180 541C160 541 140 541 120 541C100 541 80 541 60 541C40 541 20 541 10 541L0 541Z" fill="#00b2ff" stroke-linecap="round" stroke-linejoin="miter"></path></svg>