<svg id="visual" viewBox="0 0 1200 600" width="1200" height="600" xmlns="http://www.w3.org/2000/svg" xmlns:xlink="http://www.w3.org/1999/xlink" version="1.1"><rect x="0" y="0" width="1200" height="600" fill="#f5f5f5"></rect><g transform="translate(586.7693550417509 298.67763763891026)"><path d="M144.9 -182.2C191 -165.9 233.9 -127.9 256.7 -78.5C279.6 -29 282.5 31.8 257.3 75.7C232.1 119.5 179 146.3 131.4 162.2C83.9 178.1 41.9 183 -7.5 193.4C-57 203.8 -114 219.6 -157.8 202.5C-201.5 185.4 -232 135.3 -243.3 83.2C-254.6 31 -246.6 -23.3 -230.9 -76.1C-215.2 -128.8 -191.6 -180.1 -151.9 -198.4C-112.1 -216.8 -56 -202.1 -3.3 -197.5C49.4 -193 98.7 -198.4 144.9 -182.2" fill="#da3882"></path></g></svg>