<svg id="visual" viewBox="0 0 1200 600" width="1200" height="600" xmlns="http://www.w3.org/2000/svg" xmlns:xlink="http://www.w3.org/1999/xlink" version="1.1"><rect x="0" y="0" width="1200" height="600" fill="#f5f5f5"></rect><g transform="translate(573.5266312652956 295.1312767729512)"><path d="M118.6 -193.9C150.2 -187.2 169.9 -148.3 198.2 -110.7C226.4 -73 263.2 -36.5 265.4 1.2C267.5 39 235.1 78 205.2 112.8C175.3 147.6 147.9 178.1 114.1 184.3C80.3 190.5 40.2 172.2 -2.4 176.4C-45 180.6 -90 207.2 -129.8 204.6C-169.7 201.9 -204.3 169.9 -211.2 131C-218 92 -197 46 -195.1 1.1C-193.3 -43.8 -210.5 -87.7 -195.8 -113.1C-181.2 -138.5 -134.6 -145.4 -96.6 -148.5C-58.7 -151.6 -29.3 -150.8 7.1 -163.1C43.5 -175.4 87 -200.7 118.6 -193.9" fill="#da3882"></path></g></svg>